<?xml version="1.0" encoding="utf-8"?>
<svg viewBox="38.5 31.2805 21 9.4391" xmlns="http://www.w3.org/2000/svg">
  <g transform="matrix(0.21535399556159973, 0, 0, 0.21535399556159973, 38.49998474121094, 31.280475616455078)">
    <path d="M8.14303 36.6881C8.47422 36.9785 8.88821 37.2737 9.379 37.5665C9.8698 37.8593 10.4194 38.1269 11.0266 38.3633C11.6314 38.5973 12.2878 38.7893 12.9897 38.9381C13.6917 39.0857 14.4189 39.1589 15.1725 39.1589C16.7181 39.1589 17.9193 38.8865 18.7736 38.3429C19.6268 37.8017 20.0564 37.0517 20.0564 36.0929C20.0564 35.5181 19.9124 35.0285 19.628 34.6265C19.34 34.2245 18.944 33.8645 18.4389 33.5441C17.9337 33.2238 17.3397 32.9346 16.6581 32.6718C15.9753 32.4114 15.2361 32.1402 14.4441 31.8582C12.8601 31.2846 11.5498 30.7122 10.5082 30.1434C9.4678 29.5746 8.63982 28.9554 8.02783 28.2858C7.41464 27.615 6.98384 26.8615 6.73545 26.0251C6.48585 25.1899 6.35986 24.2215 6.35986 23.1235C6.35986 21.9607 6.59505 20.8904 7.06904 19.9148C7.54184 18.9392 8.20542 18.0932 9.06221 17.3864C9.9178 16.6772 10.9366 16.1252 12.1162 15.7292C13.2993 15.3345 14.5917 15.1353 15.9969 15.1353C17.3649 15.1353 18.5637 15.2685 19.598 15.536C20.6312 15.8036 21.5276 16.1204 22.28 16.4888C23.0324 16.8584 23.6552 17.2364 24.1472 17.6252C24.6404 18.0128 25.0315 18.326 25.3243 18.5684L22.9124 22.2619C22.694 22.0447 22.3652 21.7951 21.9248 21.5143C21.4844 21.2336 20.9696 20.9648 20.3828 20.7116C19.7948 20.456 19.1624 20.2412 18.4869 20.0684C17.8089 19.8944 17.1381 19.8104 16.4733 19.8104C15.7857 19.8104 15.1785 19.8872 14.6541 20.0408C14.1285 20.1956 13.6929 20.4008 13.3413 20.6636C12.9897 20.9252 12.7245 21.236 12.547 21.5935C12.367 21.9511 12.277 22.3339 12.277 22.7431C12.277 23.2423 12.3886 23.6707 12.613 24.0271C12.8349 24.3859 13.1745 24.7111 13.6281 25.0063C14.0793 25.2991 14.6577 25.5859 15.3609 25.8679C16.0629 26.1499 16.8945 26.4631 17.8521 26.8087C19.2812 27.3186 20.5076 27.8514 21.53 28.4082C22.5512 28.965 23.3924 29.5986 24.0488 30.3078C24.7076 31.017 25.1923 31.8222 25.5055 32.7222C25.8187 33.6233 25.9735 34.6685 25.9735 35.8577C25.9735 36.9317 25.7395 37.9517 25.2667 38.9141C24.7939 39.88 24.1172 40.726 23.2364 41.4544C22.3544 42.1804 21.2816 42.76 20.018 43.1884C18.752 43.6168 17.3277 43.8304 15.7449 43.8304C14.5041 43.8304 13.3581 43.72 12.3058 43.4956C11.251 43.2724 10.303 42.9916 9.4606 42.652C8.61702 42.3148 7.88023 41.944 7.25024 41.5408C6.61545 41.14 6.09586 40.7584 5.68787 40.402L8.14303 36.6881Z" style="fill: rgb(214, 221, 230);"/>
    <path d="M46.324 31.3422H36.3618V38.758H48.316V43.432H30.4027V15.5372H48.1252V20.2124H36.3618V26.6682H46.324V31.3422Z" style="fill: rgb(214, 221, 230);"/>
    <path d="M65.9616 37.7598H57.8965L56.3629 43.4321H50.3474L58.7761 15.5386H65.1L73.5298 43.4321H67.5131L65.9616 37.7598ZM59.1601 33.0847H64.6968L61.9764 22.7793H61.8612L59.1601 33.0847Z" style="fill: rgb(214, 221, 230);"/>
    <path d="M76.9763 43.4308V15.5372H85.8466C87.7485 15.5372 89.4285 15.8612 90.8853 16.5056C92.3409 17.1512 93.5612 18.0512 94.544 19.2068C95.5268 20.3636 96.2684 21.7423 96.7664 23.3443C97.2632 24.9475 97.514 26.6994 97.514 28.6026V30.3846C97.514 32.3765 97.2488 34.1765 96.7184 35.7869C96.1892 37.3925 95.4224 38.764 94.418 39.8956C93.4184 41.0248 92.1933 41.8972 90.7509 42.5092C89.3085 43.1236 87.6729 43.4308 85.8466 43.4308H76.9763ZM82.9354 20.2124V38.758H85.0666C85.9366 38.758 86.701 38.6524 87.3609 38.4508C88.0209 38.2444 88.5897 37.9613 89.0697 37.5881C89.5497 37.2173 89.9505 36.7745 90.2697 36.2597C90.5901 35.7425 90.8445 35.1749 91.0377 34.5545C91.2297 33.9353 91.3641 33.2729 91.4397 32.5649C91.5177 31.8558 91.5561 31.125 91.5561 30.3726V28.5546C91.5561 27.3306 91.4541 26.2087 91.2501 25.1863C91.0437 24.1651 90.6921 23.2891 90.1929 22.5547C89.6925 21.8227 89.0289 21.2479 88.1949 20.8303C87.3645 20.4175 86.3206 20.21 85.0666 20.21H82.9354V20.2124Z" style="fill: rgb(214, 221, 230);"/>
    <path d="M32.5027 5.46713C28.1839 2.08079 22.43 0.00962264 16.1061 2.27978e-05C9.78584 -0.00837706 4.32833 2.30519 0 5.67953L1.52037 6.98271C5.41431 3.84116 10.6702 1.91999 16.4517 1.92719C22.0544 1.93679 27.1603 3.75956 31.0063 6.74391L32.5027 5.46713Z" style="fill: rgb(214, 221, 230);"/>
    <path d="M5.68192 10.5476C8.49587 8.35766 12.241 7.02568 16.3497 7.03288C20.3301 7.03888 23.9636 8.29886 26.7392 10.376L28.2775 9.06445C25.0412 6.59969 20.7753 5.09731 16.1001 5.09011C11.4226 5.08291 7.15189 6.57089 3.90955 9.02845" style="fill: rgb(214, 221, 230);"/>
    <path d="M9.66706 13.9629C11.4418 12.6886 13.7326 11.9254 16.2333 11.9302C18.6597 11.9326 20.8857 12.6598 22.634 13.8717L24.2348 12.5098C22.0737 10.9534 19.2825 10.0114 16.2369 10.0066C13.1134 10.003 10.2599 10.9786 8.07349 12.5974L9.66706 13.9629Z" style="fill: rgb(214, 221, 230);"/>
  </g>
</svg>